<?xml version="1.0" encoding="UTF-8"?>
<svg width="30px" height="27px" viewBox="0 0 30 27" version="1.1" xmlns="http://www.w3.org/2000/svg" xmlns:xlink="http://www.w3.org/1999/xlink">
    <!-- Generator: sketchtool 41.2 (35397) - http://www.bohemiancoding.com/sketch -->
    <title>A57DB208-B339-4B77-A4EB-7E5CA3102F8C</title>
    <desc>Created with sketchtool.</desc>
    <defs></defs>
    <g id="Page-1" stroke="none" stroke-width="1" fill="none" fill-rule="evenodd">
        <g id="1200*900-copy-3" transform="translate(-200.000000, -3178.000000)" stroke="#4990E2" stroke-width="0.3" fill="#4990E2">
            <g id="education" transform="translate(201.000000, 3179.000000)">
                <g id="Group-4" transform="translate(0.000000, 6.822351)">
                    <path d="M19.6936293,15.8466644 C19.443678,15.7853295 19.1907902,15.9335666 19.1286439,16.175462 L18.6625463,17.9840472 C18.5996488,18.2270024 18.7519415,18.4720109 19.0018927,18.532551 C19.039522,18.5421552 19.0779024,18.5462619 19.1152585,18.5462619 C19.3241659,18.5462619 19.5138146,18.4091525 19.5669463,18.2039521 L20.0332488,16.3951681 C20.0956683,16.1527429 19.9435805,15.9074694 19.6936293,15.8466644 Z" id="Fill-1"></path>
                    <path d="M13.9864098,6.78956352 C14.0469854,6.78956352 14.1074927,6.7784358 14.1643122,6.75545177 L19.2926829,4.69715523 C19.5306146,4.60170856 19.6435024,4.33702785 19.5450244,4.1064589 C19.4466146,3.87542629 19.1728976,3.76679857 18.9357171,3.86145041 L13.9864098,5.84827785 L0.932331707,0.609441236 L0.932331707,0.459349524 C0.932331707,0.209638247 0.723492683,0.0070872962 0.466302439,0.0070872962 C0.208907317,0.0070872962 0,0.209638247 0,0.459349524 L0,0.911346807 C0,1.09455673 0.113639024,1.25961787 0.288126829,1.32923234 L13.8081659,6.75545177 C13.8649854,6.7784358 13.9258341,6.78956352 13.9864098,6.78956352 Z" id="Fill-3"></path>
                </g>
                <path d="M19.5325268,18.2446213 C19.4186146,18.0208084 19.1398439,17.9284086 18.9082634,18.0394209 C18.0228488,18.4639963 16.5439024,18.9576563 14.4527122,19.0249524 L14.4527122,14.968502 C14.4527122,14.7190557 14.2438049,14.5165048 13.9864098,14.5165048 C13.7289463,14.5165048 13.5201073,14.7190557 13.5201073,14.968502 L13.5201073,19.0210445 C7.73120976,18.8420075 5.86326829,15.4407014 5.59467317,14.8745788 L5.59467317,11.803395 C5.59467317,11.5536838 5.38576585,11.3510666 5.12837073,11.3510666 C4.87118049,11.3510666 4.66234146,11.5536838 4.66234146,11.803395 L4.66234146,14.968502 C4.66234146,15.025929 4.67354146,15.083091 4.69539512,15.1366763 C4.77645854,15.3325374 6.76070244,19.942393 13.9864098,19.942393 C16.5118732,19.942393 18.2816098,19.3483849 19.3212293,18.8500221 C19.5525366,18.7392748 19.6471902,18.4684341 19.5325268,18.2446213 Z" id="Fill-5"></path>
                <g id="Group-9">
                    <path d="M20.9794439,23.1078312 C20.7217756,23.1078312 20.5134146,23.3103821 20.5134146,23.5598285 L20.5134146,24.9163502 C20.5134146,25.1660615 20.7217756,25.3686124 20.9794439,25.3686124 C21.2374537,25.3686124 21.4457463,25.1660615 21.4457463,24.9163502 L21.4457463,23.5598285 C21.4457463,23.3103821 21.2374537,23.1078312 20.9794439,23.1078312 Z" id="Fill-6"></path>
                    <path d="M27.5064488,6.82943784 C27.2487805,6.82943784 27.0401463,7.03198879 27.0401463,7.28170007 L27.0401463,7.430732 L21.4457463,9.66415761 L21.4457463,8.84706522 L27.6846927,6.34273268 C27.8589073,6.27311821 27.9728195,6.10805707 27.9728195,5.92511209 C27.9728195,5.74196841 27.8589073,5.57737092 27.685239,5.5072928 L14.1643122,0.0810733696 C14.0501268,0.0355689538 13.9223512,0.0355689538 13.8081659,0.0810733696 L0.288126829,5.5072928 C0.113639024,5.57737092 0,5.74196841 0,5.92511209 C0,6.10832201 0.113639024,6.27338315 0.288126829,6.34299762 L13.8081659,11.7689521 C13.8652585,11.7920024 13.9258341,11.803395 13.9864098,11.803395 C14.0469854,11.803395 14.1074927,11.7920024 14.1645854,11.7689521 L19.0531122,9.80696332 C19.2913171,9.7119803 19.4042049,9.44756454 19.306,9.21653193 C19.2075902,8.98576427 18.9346927,8.87680537 18.6969659,8.97178838 L13.9864098,10.8618444 L1.68546341,5.92511209 L13.9864098,0.988181046 L26.2873561,5.92511209 L20.9346439,8.07342391 L15.8079122,6.21675102 C15.8348195,6.12256284 15.8510732,6.02605639 15.8510732,5.92511209 C15.8510732,5.16445312 15.0321073,4.56859035 13.9864098,4.56859035 C12.9406439,4.56859035 12.121678,5.16445312 12.121678,5.92511209 C12.121678,6.68557235 12.9406439,7.28170007 13.9864098,7.28170007 C14.4529854,7.28170007 14.8693659,7.15803668 15.1930049,6.95932745 L20.5134146,8.88587976 L20.5134146,20.0257184 C19.9721268,20.2132999 19.5808098,20.710338 19.5808098,21.298981 C19.5808098,22.0469888 20.2084878,22.6555027 20.9794439,22.6555027 C21.7506732,22.6555027 22.3781463,22.0469888 22.3781463,21.298981 C22.3781463,20.710338 21.9870341,20.2132999 21.4457463,20.0257184 L21.4457463,17.4593224 C22.7841463,16.4792221 23.264039,15.174431 23.2848683,15.1164742 C23.3016683,15.0691151 23.310478,15.0189079 23.310478,14.968767 L23.310478,11.803395 C23.310478,11.5539487 23.1021171,11.3513315 22.8444488,11.3513315 C22.586439,11.3513315 22.3781463,11.5539487 22.3781463,11.803395 L22.3781463,14.8851766 C22.297561,15.0768648 22.0172195,15.6678261 21.4457463,16.2510377 L21.4457463,10.6421382 L27.6841463,8.15211277 C27.8589073,8.0824983 27.9728195,7.91690727 27.9728195,7.73369735 L27.9728195,7.28170007 C27.9728195,7.03198879 27.7641854,6.82943784 27.5064488,6.82943784 Z M13.9864098,6.37717561 C13.417122,6.37717561 13.0538049,6.10964674 13.0538049,5.92511209 C13.0538049,5.74064368 13.417122,5.47284986 13.9864098,5.47284986 C14.5556976,5.47284986 14.9187415,5.74064368 14.9187415,5.92511209 C14.9187415,6.10964674 14.5556976,6.37717561 13.9864098,6.37717561 Z M20.9794439,21.7512432 C20.722322,21.7512432 20.5134146,21.5481624 20.5134146,21.298981 C20.5134146,21.0497996 20.722322,20.8469837 20.9794439,20.8469837 C21.2369073,20.8469837 21.4457463,21.0497996 21.4457463,21.298981 C21.4457463,21.5481624 21.2369073,21.7512432 20.9794439,21.7512432 Z" id="Fill-8"></path>
                </g>
                <path d="M22.8303122,22.9978125 C22.7678927,22.7559171 22.5141854,22.607945 22.2652585,22.6690149 C22.0153073,22.729555 21.863561,22.9750934 21.9259805,23.2175187 L22.3922829,25.0263026 C22.4453463,25.2315031 22.6349951,25.3686124 22.8439024,25.3686124 C22.8812585,25.3686124 22.9193659,25.3645058 22.9572683,25.3549015 C23.2072195,25.2943614 23.3590341,25.0493529 23.2966146,24.8063978 L22.8303122,22.9978125 Z" id="Fill-10"></path>
            </g>
        </g>
    </g>
</svg>