<?xml version="1.0" encoding="UTF-8"?>
<svg width="24px" height="21px" viewBox="0 0 24 21" version="1.1" xmlns="http://www.w3.org/2000/svg" xmlns:xlink="http://www.w3.org/1999/xlink">
    <!-- Generator: sketchtool 41.2 (35397) - http://www.bohemiancoding.com/sketch -->
    <title>332D54EF-3113-4D97-A72C-57F8405468AC</title>
    <desc>Created with sketchtool.</desc>
    <defs></defs>
    <g id="Page-1" stroke="none" stroke-width="1" fill="none" fill-rule="evenodd">
        <g id="1200*900-copy-3" transform="translate(-204.000000, -763.000000)" stroke="#4990E2" stroke-width="0.5" fill="#4A90E2">
            <path d="M225.809524,766.714286 L220.833333,766.714286 L220.833333,765.809524 C220.833333,764.811571 220.021762,764 219.02381,764 L213.595238,764 C212.597286,764 211.785714,764.811571 211.785714,765.809524 L211.785714,766.714286 L206.809524,766.714286 C205.811571,766.714286 205,767.525857 205,768.52381 L205,781.190476 C205,782.188429 205.811571,783 206.809524,783 L225.809524,783 C226.807476,783 227.619048,782.188429 227.619048,781.190476 L227.619048,768.52381 C227.619048,767.525857 226.807476,766.714286 225.809524,766.714286 L225.809524,766.714286 Z M212.690476,765.809524 C212.690476,765.310548 213.096714,764.904762 213.595238,764.904762 L219.02381,764.904762 C219.522786,764.904762 219.928571,765.310548 219.928571,765.809524 L219.928571,766.714286 L212.690476,766.714286 L212.690476,765.809524 L212.690476,765.809524 Z M226.714286,781.190476 C226.714286,781.689452 226.3085,782.095238 225.809524,782.095238 L206.809524,782.095238 C206.311,782.095238 205.904762,781.689452 205.904762,781.190476 L205.904762,773.940619 C206.283857,774.227881 206.750714,774.404762 207.261905,774.404762 L214.5,774.404762 L214.5,774.857143 C214.5,775.605381 215.108905,776.214286 215.857143,776.214286 L216.761905,776.214286 C217.510143,776.214286 218.119048,775.605381 218.119048,774.857143 L218.119048,774.404762 L225.357143,774.404762 C225.868333,774.404762 226.33519,774.227881 226.714286,773.940619 L226.714286,781.190476 L226.714286,781.190476 Z M215.404762,774.857143 L215.404762,773.047619 C215.404762,772.798357 215.607429,772.595238 215.857143,772.595238 L216.761905,772.595238 C217.011619,772.595238 217.214286,772.798357 217.214286,773.047619 L217.214286,774.857143 C217.214286,775.106405 217.011619,775.309524 216.761905,775.309524 L215.857143,775.309524 C215.607429,775.309524 215.404762,775.106405 215.404762,774.857143 L215.404762,774.857143 Z M226.714286,772.142857 C226.714286,772.891095 226.105381,773.5 225.357143,773.5 L218.119048,773.5 L218.119048,773.047619 C218.119048,772.299381 217.510143,771.690476 216.761905,771.690476 L215.857143,771.690476 C215.108905,771.690476 214.5,772.299381 214.5,773.047619 L214.5,773.5 L207.261905,773.5 C206.513667,773.5 205.904762,772.891095 205.904762,772.142857 L205.904762,768.52381 C205.904762,768.024833 206.311,767.619048 206.809524,767.619048 L225.809524,767.619048 C226.3085,767.619048 226.714286,768.024833 226.714286,768.52381 L226.714286,772.142857 L226.714286,772.142857 Z" id="experience"></path>
        </g>
    </g>
</svg>