<?xml version="1.0" encoding="UTF-8"?>
<svg width="30px" height="28px" viewBox="0 0 30 28" version="1.1" xmlns="http://www.w3.org/2000/svg" xmlns:xlink="http://www.w3.org/1999/xlink">
    <!-- Generator: sketchtool 41.2 (35397) - http://www.bohemiancoding.com/sketch -->
    <title>58796676-298A-4E4E-8604-2F53C3961CE6</title>
    <desc>Created with sketchtool.</desc>
    <defs></defs>
    <g id="Page-1" stroke="none" stroke-width="1" fill="none" fill-rule="evenodd">
        <g id="1200*900-copy-3" transform="translate(-197.000000, -5664.000000)" stroke="#4990E2" stroke-width="1.4">
            <g id="publications" transform="translate(198.000000, 5665.000000)">
                <path d="M13.1687733,0.118644324 L0.39368,6.12658378 C-0.131226667,6.39035027 -0.131226667,7.12801946 0.39368,7.39144865 L13.1687733,13.3997254 C13.5185867,13.5579178 13.9270133,13.5579178 14.2768267,13.3997254 L27.05192,7.39144865 C27.5772,7.12801946 27.5772,6.39035027 27.05192,6.12658378 L14.2185867,0.118644324 C13.8687733,-0.0395481081 13.5185867,-0.0395481081 13.1687733,0.118644324 L13.1687733,0.118644324 Z" id="Fill-1"></path>
                <path d="M24.6021067,11.0397168 C24.4852533,10.9867611 24.3105333,10.9867611 24.13544,11.0397168 L14.9772,15.3611697 C14.5687733,15.5719805 14.1021067,15.6245989 13.69368,15.6245989 C13.2270133,15.6245989 12.8185867,15.5193622 12.41016,15.3611697 L3.25192,11.0397168 C3.13544,10.9867611 2.96034667,10.9867611 2.78525333,11.0397168 L0.39368,12.1463892 C-0.131226667,12.4098184 -0.131226667,13.1478249 0.39368,13.4112541 L13.1687733,19.4191935 C13.5185867,19.5773859 13.9270133,19.5773859 14.2768267,19.4191935 L27.05192,13.4112541 C27.5185867,13.1478249 27.5185867,12.4098184 26.99368,12.1463892 L24.6021067,11.0397168 Z" id="Fill-2"></path>
                <path d="M24.6021067,17.0394638 C24.4852533,16.9868454 24.3105333,16.9868454 24.13544,17.0394638 L14.9772,21.3612541 C14.5687733,21.5720649 14.1021067,21.6246832 13.69368,21.6246832 C13.2270133,21.6246832 12.8185867,21.5194465 12.41016,21.3612541 L3.25192,17.0394638 C3.13544,16.9868454 2.96034667,16.9868454 2.78525333,17.0394638 L0.39368,18.1464735 C-0.131226667,18.4099027 -0.131226667,19.1475719 0.39368,19.4113384 L13.1687733,25.4192778 C13.5185867,25.5774703 13.9270133,25.5774703 14.2768267,25.4192778 L27.05192,19.4113384 C27.5185867,19.1475719 27.5185867,18.4099027 26.99368,18.1464735 L24.6021067,17.0394638 Z" id="Fill-3"></path>
            </g>
        </g>
    </g>
</svg>