<svg xmlns="http://www.w3.org/2000/svg" width="29" height="30" viewBox="0 0 29 30">
    <path fill="#4A90E2" fill-rule="evenodd" stroke="#4A90E2" stroke-width=".5" d="M27.488 4.267a.45.45 0 0 0 .446-.455V1.455A.45.45 0 0 0 27.488 1H1.522a.45.45 0 0 0-.445.455v2.357c0 .251.2.455.445.455h.842V18.43h-.842a.45.45 0 0 0-.445.454v2.358c0 .251.2.454.445.454H14.06v1.4l-4.863 5.05a.461.461 0 0 0 .006.642.44.44 0 0 0 .63-.005l1.724-1.79h5.896l1.724 1.79a.44.44 0 0 0 .63.005.461.461 0 0 0 .006-.642l-4.862-5.05v-1.4h12.537a.45.45 0 0 0 .446-.454v-2.358a.45.45 0 0 0-.446-.454h-.842V4.267h.842zm-10.91 21.817h-4.146l2.073-2.152 2.073 2.152zm10.465-6.744v1.448H1.968V19.34h25.075zm-23.788-.91V4.268h22.5V18.43h-22.5zM1.968 3.359V1.909h25.075v1.449H1.968z"/>
</svg>
