<?xml version="1.0" encoding="UTF-8"?>
<svg width="28px" height="31px" viewBox="0 0 28 31" version="1.1" xmlns="http://www.w3.org/2000/svg" xmlns:xlink="http://www.w3.org/1999/xlink">
    <!-- Generator: sketchtool 41.2 (35397) - http://www.bohemiancoding.com/sketch -->
    <title>B8C133B8-9461-4FF9-BC2D-361ABB51A470</title>
    <desc>Created with sketchtool.</desc>
    <defs></defs>
    <g id="Page-1" stroke="none" stroke-width="1" fill="none" fill-rule="evenodd">
        <g id="1200*900-copy-3" transform="translate(-197.000000, -6123.000000)" stroke="#4990E2" stroke-width="0.2" fill="#4990E2">
            <g id="Page-1" transform="translate(198.000000, 6123.000000)">
                <g id="Group-3" transform="translate(0.000000, 0.006392)">
                    <path d="M20.9062012,25.8102325 L20.9062012,28.5422273 C21.8158822,27.6443459 22.7499681,26.7224954 23.6743239,25.8102325 L20.9062012,25.8102325 Z M7.25285153,19.874851 C7.16783313,19.9550675 7.07101104,20.0419954 6.97913374,20.1340366 C5.96545276,21.1484077 4.95225031,22.1637376 3.93904785,23.1789077 C3.12299877,23.9967325 2.30647117,24.8143974 1.49137914,25.6331809 C1.24429939,25.8813407 1.16550184,26.1684902 1.28912147,26.5077325 C1.39950184,26.8111809 1.64642209,26.9848768 1.92699877,26.9530778 C2.1788638,26.9247943 2.46534233,26.793284 2.6468638,26.6155933 C3.99423804,25.2963356 5.31768589,23.9527892 6.65198037,22.619949 C7.21393129,22.0584335 7.78353865,21.5049077 8.36112147,20.9365211 C7.97766135,20.5691552 7.63567362,20.2415778 7.25285153,19.874851 L7.25285153,19.874851 Z M14.9072196,19.1979644 C18.2167166,19.1867789 20.9349129,16.454784 20.9127411,13.1622325 C20.8904098,9.84123763 18.1832196,7.16357268 14.8627166,7.17779433 C11.5605571,7.19217577 8.88271656,9.88454175 8.88590675,13.1868407 C8.88925644,16.5038407 11.5993178,19.2093098 14.9072196,19.1979644 L14.9072196,19.1979644 Z M4.92816442,29.583284 L19.6486307,29.583284 C19.6486307,28.16815 19.6467166,26.7841758 19.6494282,25.4003613 C19.6505448,24.7920263 19.8564712,24.5801397 20.460054,24.578382 C21.7094896,24.5750263 22.9587656,24.5798201 24.2082012,24.5812582 C24.3506429,24.581418 24.4929252,24.5812582 24.6425448,24.5812582 L24.6425448,1.40028918 L4.95432393,1.40028918 L4.95432393,20.3845933 C5.04348957,20.3177995 5.09820123,20.2864799 5.14126871,20.2434954 C5.68742822,19.698918 6.22656933,19.1466706 6.77926871,18.6088046 C7.13321963,18.2642892 7.43883926,18.264449 7.78720736,18.60465 C7.92757546,18.7417531 8.02870429,18.9191242 8.14913374,19.0803562 C8.5973546,18.6140778 8.96167362,18.2352067 9.32918282,17.8528201 C6.29739141,14.0382222 7.85308466,9.49448505 10.3760417,7.53461392 C13.3031951,5.26074794 17.2936368,5.44994381 19.9496245,8.0128768 C22.5242626,10.497351 22.8483853,14.5851964 20.6926184,17.4896088 C19.6012564,18.9597119 18.1521153,19.9029747 16.3638577,20.2666655 C14.1106307,20.7247943 12.0764098,20.1814954 10.303784,18.7828201 C9.90229939,19.1779902 9.52553865,19.5490314 9.13665521,19.9318974 C9.21672883,20.0167479 9.29552638,20.1047943 9.37879018,20.1883665 C9.98827485,20.8008562 9.98604172,21.0090675 9.36602945,21.6293871 C7.99345276,23.0026552 6.62709693,24.3824747 5.24399264,25.7451964 C5.00425031,25.9812119 4.90694969,26.2188253 4.92162454,26.5500778 C4.94555092,27.0949747 4.92816442,27.6416294 4.92816442,28.1876448 L4.92816442,29.583284 Z M3.70791902,27.4516345 C3.27437301,27.6897273 2.89777178,27.9743201 2.4734773,28.112382 C1.65407853,28.3790778 0.794961963,28.0182634 0.324409816,27.2969541 C-0.144706748,26.5777222 -0.113123926,25.6120881 0.471955828,24.960449 C1.07521963,24.2883562 1.73367362,23.6659593 2.36836074,23.02215 C2.80685153,22.577284 3.41904785,22.2035263 3.63693742,21.6685366 C3.86088834,21.1186861 3.70680245,20.4115985 3.70696196,19.773382 C3.70871656,13.5700263 3.70791902,7.36667062 3.70807853,1.16315515 C3.70807853,0.295474742 3.85259387,0.153418041 4.73420123,0.153418041 C11.4713914,0.153418041 18.2084221,0.153418041 24.9456123,0.153577835 C25.7280049,0.153577835 25.8962871,0.32343866 25.8962871,1.11825309 C25.8967656,9.02565 25.894373,16.9328871 25.902508,24.840284 C25.9029865,25.2562273 25.7836736,25.5697428 25.4853914,25.8645624 C23.953465,27.3782892 22.4327043,28.9038407 20.9197595,30.4369026 C20.6364712,30.7240521 20.3330847,30.8408613 19.9306429,30.8402222 C14.8413423,30.8306345 9.75188221,30.8339902 4.66242209,30.8338304 C3.87476564,30.8338304 3.70871656,30.6663665 3.70807853,29.8721912 C3.70744049,29.0615572 3.70791902,28.2507634 3.70791902,27.4516345 L3.70791902,27.4516345 Z" id="references"></path>
                </g>
                <path d="M14.9255472,13.8277258 C13.8222221,13.8277258 12.7190564,13.8337979 11.6157313,13.8251691 C11.0706883,13.8210144 10.7274245,13.3742309 10.9834368,12.9710711 C11.0955718,12.7941794 11.3831669,12.6315093 11.5929215,12.6292722 C13.8123325,12.6048237 16.0322221,12.6110557 18.2519521,12.6171278 C18.6847006,12.6182464 18.942627,12.8659268 18.9378417,13.2294577 C18.9330564,13.5905918 18.6743325,13.8226124 18.2352037,13.8253289 C17.132038,13.8322 16.0287129,13.8277258 14.9255472,13.8277258" id="Fill-4"></path>
                <path d="M14.9018761,14.9949716 C15.9517656,14.9949716 17.0018147,14.9938531 18.0517043,14.9964098 C18.1973362,14.9967294 18.3850785,14.9617345 18.4793485,15.036518 C18.6595939,15.1795335 18.8947104,15.3839098 18.905238,15.5740644 C18.9156061,15.761982 18.7052135,15.9952809 18.5362933,16.1472448 C18.4399497,16.2340129 18.2335448,16.214518 18.0764282,16.2146778 C15.9764896,16.2183531 13.8765509,16.2173943 11.7767718,16.2164356 C11.6576184,16.2164356 11.5349558,16.2202706 11.4199497,16.1947036 C11.0950294,16.1224768 10.8986736,15.9198582 10.9160601,15.5766211 C10.9331276,15.2367397 11.1377779,15.0429098 11.4737043,15.0096727 C11.6713362,14.990018 11.8716798,14.9957706 12.0709067,14.995451 C13.0145632,14.9943325 13.9582196,14.9949716 14.9018761,14.9949716" id="Fill-6"></path>
                <path d="M12.8879129,10.1549608 C13.2981706,10.1549608 13.7087472,10.1480897 14.1188454,10.1568784 C14.5662687,10.1663062 14.8532258,10.4130278 14.8557779,10.7720845 C14.8583301,11.1381722 14.5937043,11.3722701 14.1237902,11.3783423 C13.2900356,11.3890485 12.455962,11.3898474 11.6222074,11.3777031 C11.156919,11.3709918 10.8983546,11.1287443 10.9098393,10.7565845 C10.9210049,10.3965691 11.2022196,10.1647082 11.6569804,10.156399 C12.0670785,10.1488887 12.4776552,10.1549608 12.8879129,10.1549608" id="Fill-8"></path>
                <path d="M16.270162,11.3815861 C15.768984,11.3830242 15.4936712,11.1743335 15.4868123,10.7876325 C15.4797939,10.3939005 15.786211,10.1503747 16.2826037,10.154849 C16.7517202,10.1591634 17.0536712,10.4054057 17.0503215,10.7806015 C17.0466528,11.162349 16.7640025,11.3801479 16.270162,11.3815861" id="Fill-10"></path>
            </g>
        </g>
    </g>
</svg>