<?xml version="1.0" encoding="UTF-8"?>
<svg width="20px" height="20px" viewBox="0 0 20 20" version="1.1" xmlns="http://www.w3.org/2000/svg" xmlns:xlink="http://www.w3.org/1999/xlink">
    <!-- Generator: sketchtool 41.2 (35397) - http://www.bohemiancoding.com/sketch -->
    <title>02D132B9-36F4-4886-B85A-56B0ADE86F06</title>
    <desc>Created with sketchtool.</desc>
    <defs></defs>
    <g id="Page-1" stroke="none" stroke-width="1" fill="none" fill-rule="evenodd">
        <g id="1200*900-copy-3" transform="translate(-208.000000, -399.000000)">
            <g id="summary" transform="translate(209.000000, 400.000000)">
                <path d="M9,18 C13.97064,18 18,13.97064 18,9 C18,4.02936 13.97064,0 9,0 C4.02936,0 0,4.02936 0,9 C0,13.97064 4.02936,18 9,18 L9,18 Z" id="Page-1" stroke="#4990E2" stroke-width="1.5"></path>
                <path d="M12.37488,11.25 C12.37488,13.11384 10.86384,14.62512 9,14.62512 C7.13616,14.62512 5.62512,13.11384 5.62512,11.25 L12.37488,11.25 Z" id="Path" fill="#4990E2"></path>
                <path d="M12.37488,9 C12.99648,9 13.5,8.49648 13.5,7.87488 C13.5,7.25352 12.99648,6.75 12.37488,6.75 C11.75352,6.75 11.25,7.25352 11.25,7.87488 C11.25,8.49648 11.75352,9 12.37488,9 L12.37488,9 Z" id="Path" fill="#4990E2"></path>
                <path d="M5.62512,9 C6.24648,9 6.75,8.49648 6.75,7.87488 C6.75,7.25352 6.24648,6.75 5.62512,6.75 C5.00352,6.75 4.5,7.25352 4.5,7.87488 C4.5,8.49648 5.00352,9 5.62512,9 L5.62512,9 Z" id="Path" fill="#4990E2"></path>
            </g>
        </g>
    </g>
</svg>