<?xml version="1.0" encoding="UTF-8"?>
<svg width="26px" height="26px" viewBox="0 0 26 26" version="1.1" xmlns="http://www.w3.org/2000/svg" xmlns:xlink="http://www.w3.org/1999/xlink">
    <!-- Generator: sketchtool 41.2 (35397) - http://www.bohemiancoding.com/sketch -->
    <title>1E7D9C74-600A-45D8-94A5-0EC2489D7F28</title>
    <desc>Created with sketchtool.</desc>
    <defs></defs>
    <g id="Page-1" stroke="none" stroke-width="1" fill="none" fill-rule="evenodd">
        <g id="1200*900-copy-3" transform="translate(-203.000000, -3626.000000)">
            <g id="skills" transform="translate(204.000000, 3627.000000)">
                <path d="M17.906087,0.60173913 L10.5123478,7.99443478 L2.0626087,16.4441739 L0.584347826,23.4128696 L7.55443478,21.9346087 L23.3982609,6.09391304 C23.3982609,6.09495652 23.7147826,4.51095652 21.6017391,2.39826087 C19.4918261,0.285217391 17.906087,0.60173913 17.906087,0.60173913 Z M7.20275775,21.9346087 L5.13077738,22.3046204 C4.90121216,21.8754031 4.61650136,21.302897 3.80777411,20.4836663 C2.99904686,19.6644357 2.03328088,19.376119 1.60232436,19.1479451 L2.0626087,16.7489762 L2.82935551,16.0169617 C2.82935551,16.0169617 4.88173913,16.1982609 6.33843478,17.6577391 C7.79756522,19.1182609 8.28580405,20.9026917 8.28580405,20.9026917 L7.20275775,21.9346087 Z" id="Combined-Shape" stroke="#4990E2" stroke-width="1.5" stroke-linecap="round" stroke-linejoin="round"></path>
                <path d="M5.23373913,11.28 L6.23234783,10.2813913 L1.69982609,5.74852174 L5.74852174,1.69982609 L6.68486957,2.63582609 L5.4226087,3.89808696 C5.14678261,4.17391304 5.14678261,4.62086957 5.4226087,4.89669565 C5.69843478,5.17252174 6.144,5.17252174 6.42121739,4.89669565 L7.68347826,3.63443478 L9.40904348,5.3586087 L8.14678261,6.62086957 C7.87095652,6.89669565 7.87095652,7.34365217 8.14678261,7.61947826 C8.2973913,7.77182609 8.50017391,7.83165217 8.69843478,7.81669565 L11.2786087,5.23513043 L6.65773913,0.611478261 C6.15617391,0.109913043 5.30017391,0.150956522 4.74991304,0.701217391 L0.701217391,4.75130435 C0.150956522,5.30156522 0.111304348,6.15617391 0.612869565,6.65913043 L5.23373913,11.28 Z" id="Fill-2" fill="#4990E2"></path>
                <path d="M23.3871304,17.3408696 L18.7676522,12.7227826 L16.1248696,15.3655652 C16.1412174,15.5189565 16.1996522,15.669913 16.317913,15.7881739 C16.5937391,16.064 17.0393043,16.064 17.3151304,15.7881739 L18.5773913,14.525913 L20.3029565,16.2514783 L19.0406957,17.5137391 C18.7648696,17.7895652 18.7648696,18.2365217 19.0406957,18.5109565 C19.3165217,18.7881739 19.7634783,18.7881739 20.0393043,18.5109565 L21.3015652,17.2486957 L22.3015652,18.2486957 L22.3015652,18.2486957 L18.2514783,22.3001739 L13.72,17.7704348 L12.7213913,18.7690435 L17.3408696,23.3885217 C17.8424348,23.890087 18.6984348,23.8490435 19.2486957,23.3001739 L23.2973913,19.2514783 C23.8490435,18.6984348 23.8886957,17.8438261 23.3871304,17.3408696 L23.3871304,17.3408696 Z" id="Fill-3" fill="#4990E2"></path>
            </g>
        </g>
    </g>
</svg>