<?xml version="1.0" encoding="UTF-8"?>
<svg width="18px" height="17px" viewBox="0 0 18 17" version="1.1" xmlns="http://www.w3.org/2000/svg" xmlns:xlink="http://www.w3.org/1999/xlink">
    <!-- Generator: sketchtool 41.2 (35397) - http://www.bohemiancoding.com/sketch -->
    <title>52BE3674-F134-430F-9EE7-45F09D963074</title>
    <desc>Created with sketchtool.</desc>
    <defs></defs>
    <g id="Page-1" stroke="none" stroke-width="1" fill="none" fill-rule="evenodd">
        <g id="1200*900-copy-3" transform="translate(-999.000000, -162.000000)" fill="#282C38">
            <g id="Group-3" transform="translate(952.000000, 162.000000)">
                <path d="M65,17 L61.0217545,17 L61.0217545,11.0238202 C61.0217545,9.4595633 60.3994591,8.39168854 59.0310442,8.39168854 C57.9843603,8.39168854 57.4022813,9.1123135 57.13135,9.80681309 C57.0297507,10.0560927 57.0456256,10.4033425 57.0456256,10.7505923 L57.0456256,17 L53.1044214,17 C53.1044214,17 53.1552211,6.41377986 53.1044214,5.45149517 L57.0456256,5.45149517 L57.0456256,7.26394314 C57.2784572,6.47147339 58.5378645,5.34046232 60.5476246,5.34046232 C63.0410395,5.34046232 65,7.00160082 65,10.5786002 L65,17 L65,17 Z M49.1187676,4.00697957 L49.0933678,4.00697957 C47.8233772,4.00697957 47,3.12415957 47,2.00512262 C47,0.864314529 47.8477187,0 49.1431091,0 C50.4374412,0 51.233302,0.862137414 51.2587018,2.00185695 C51.2587018,3.1208939 50.4374412,4.00697957 49.1187676,4.00697957 L49.1187676,4.00697957 L49.1187676,4.00697957 Z M47.4540216,5.45149517 L50.9623706,5.45149517 L50.9623706,17 L47.4540216,17 L47.4540216,5.45149517 L47.4540216,5.45149517 Z" id="LinkedIn"></path>
            </g>
        </g>
    </g>
</svg>