<?xml version="1.0" encoding="UTF-8"?>
<svg width="155px" height="157px" viewBox="0 0 155 157" version="1.1" xmlns="http://www.w3.org/2000/svg" xmlns:xlink="http://www.w3.org/1999/xlink">
    <!-- Generator: Sketch 45.2 (43514) - http://www.bohemiancoding.com/sketch -->
    <title>Skype</title>
    <desc>Created with Sketch.</desc>
    <defs></defs>
    <g id="Page-1" stroke="none" stroke-width="1" fill="none" fill-rule="evenodd">
        <path d="M77.6794,129.6507 C88.6014,129.0547 99.1754,127.5277 108.5694,121.0777 C124.1424,110.3827 126.1474,84.0777 106.6104,74.2157 C97.7024,69.7207 88.1044,67.6967 78.5574,65.3917 C73.2304,64.1047 67.7844,63.1617 63.0394,60.1997 C57.5354,56.7647 57.4524,50.8597 62.7484,47.1427 C65.2604,45.3797 68.0204,44.3887 71.0524,44.0257 C83.2264,42.5677 89.3994,44.6347 94.5994,54.4597 C95.2354,55.6617 96.1134,56.7347 96.8604,57.8797 C99.3304,61.6667 102.9374,62.9847 107.2144,62.2437 C111.2914,61.5367 114.2974,59.1867 115.5384,55.1337 C117.3914,49.0847 114.8084,44.0937 111.0524,39.7407 C104.2304,31.8337 95.0764,28.5817 84.9684,27.6917 C72.4934,26.5937 60.2984,27.3187 49.0974,33.8177 C34.1874,42.4697 32.0154,62.8027 45.0034,74.0307 C52.6054,80.6027 62.2674,82.5277 71.6744,84.9177 C78.2904,86.5967 85.2474,87.2067 91.2994,90.7247 C98.8184,95.0967 99.2774,103.1767 92.3344,108.3947 C89.0584,110.8577 85.2284,112.0027 81.2054,112.3727 C68.5864,113.5337 61.3304,110.4937 56.4414,99.2097 C55.9984,98.1857 55.4974,97.1827 54.9624,96.2037 C51.9374,90.6737 46.5904,88.6717 40.7024,90.8437 C36.0114,92.5757 33.6264,97.3517 34.8824,103.1917 C36.9314,112.7267 43.0154,119.2127 51.2534,123.8657 C59.4474,128.4947 68.5794,129.0547 77.6794,129.6507 M151.2234,80.1937 C150.8774,83.4787 151.2924,88.0317 150.0194,92.3987 C149.5494,94.0107 150.0714,95.2837 150.6384,96.6917 C159.6834,119.1637 149.7284,142.0267 130.7894,151.5757 C118.9964,157.5207 106.8394,157.7937 94.6294,152.7927 C92.2514,151.8187 90.0464,151.4987 87.4304,151.8117 C67.0704,154.2477 48.6034,149.3687 32.4034,136.6997 C18.4444,125.7837 9.7384,111.4437 5.9444,94.1957 C4.5514,87.8577 3.4024,81.2717 4.5534,74.8727 C5.7974,67.9457 4.3624,61.8567 2.1804,55.3587 C-7.8986,25.3447 18.5124,-4.8563 49.6524,0.6557 C54.3734,1.4907 58.8344,2.8657 63.0054,5.1957 C64.5784,6.0757 66.1604,6.3487 68.0024,6.1247 C103.5614,1.7897 135.3414,21.3907 147.3834,55.1357 C150.1274,62.8257 151.3214,70.8337 151.2234,80.1937" id="Skype" fill="#242731"></path>
    </g>
</svg>