<?xml version="1.0" encoding="UTF-8"?>
<svg width="19px" height="16px" viewBox="0 0 19 16" version="1.1" xmlns="http://www.w3.org/2000/svg" xmlns:xlink="http://www.w3.org/1999/xlink">
    <!-- Generator: sketchtool 41.2 (35397) - http://www.bohemiancoding.com/sketch -->
    <title>E0349994-85C2-482A-8B39-56C5A203D136</title>
    <desc>Created with sketchtool.</desc>
    <defs></defs>
    <g id="Page-1" stroke="none" stroke-width="1" fill="none" fill-rule="evenodd">
        <g id="1200*900-copy-3" transform="translate(-1044.000000, -164.000000)" fill="#282C38">
            <g id="Group-3" transform="translate(952.000000, 162.000000)">
                <path d="M111,3.8941134 C110.301872,4.21538462 109.550214,4.43264717 108.761754,4.52972192 C109.566943,4.03048032 110.184774,3.23885879 110.475847,2.29584688 C109.721958,2.75810762 108.888889,3.09440231 107.998943,3.274684 C107.289664,2.48999639 106.275929,2 105.154018,2 C103.002759,2 101.25744,3.80859516 101.25744,6.03900325 C101.25744,6.35565186 101.290896,6.66305525 101.357809,6.95890213 C98.1180959,6.79017696 95.2464049,5.18382087 93.3226507,2.73730589 C92.9869695,3.33593355 92.7951517,4.03048032 92.7951517,4.77009751 C92.7951517,6.17074756 93.4832424,7.40729505 94.5293185,8.13188877 C93.8914128,8.11224269 93.2891941,7.92849404 92.7628104,7.62802456 L92.7628104,7.67771759 C92.7628104,9.63539184 94.1066502,11.2683279 95.8910019,11.6381365 C95.5642425,11.7329 95.2196396,11.7802817 94.8638845,11.7802817 C94.61296,11.7802817 94.3676117,11.756013 94.1300698,11.7086313 C94.6263427,13.3126761 96.0649762,14.4810401 97.7712625,14.5122427 C96.4374596,15.5962441 94.7557082,16.2422535 92.9300933,16.2422535 C92.6156013,16.2422535 92.304455,16.2237631 92,16.1867822 C93.7252451,17.3308776 95.7750191,18 97.9753478,18 C105.146211,18 109.066209,11.8461538 109.066209,6.50819791 C109.066209,6.33253882 109.062863,6.15687974 109.056172,5.98468761 C109.817867,5.41495125 110.479192,4.70422535 111,3.8941134" id="Twitter"></path>
            </g>
        </g>
    </g>
</svg>