<?xml version="1.0" encoding="UTF-8"?>
<svg width="24px" height="24px" viewBox="0 0 24 24" version="1.1" xmlns="http://www.w3.org/2000/svg" xmlns:xlink="http://www.w3.org/1999/xlink">
    <!-- Generator: Sketch 45.2 (43514) - http://www.bohemiancoding.com/sketch -->
    <title>Page 1</title>
    <desc>Created with Sketch.</desc>
    <defs>
        <polygon id="path-1" points="10.6998 24 0 24 0 0 24 0 24 24 10.6998 24 10.6998 0.0001 -0.0002 0.0001 -0.0002 24.0001 10.6998 24.0001"></polygon>
        <polygon id="path-3" points="10.9996 0 0.3996 0 0.3996 11.2999 10.9996 11.2999 10.9996 1.0658141e-14"></polygon>
    </defs>
    <g id="Page-1" stroke="none" stroke-width="1" fill="none" fill-rule="evenodd">
        <g>
            <g id="Group-3" fill="#000000">
                <path d="M2.9381,21.1471 C4.1101,20.8421 5.1651,20.5501 6.2301,20.3041 C6.4731,20.2491 6.7961,20.2781 7.0111,20.3971 C8.5671,21.2651 10.2181,21.7761 12.0061,21.7821 C18.0071,21.8001 22.6431,16.4751 21.8171,10.5191 C21.2621,6.5151 18.2661,3.2081 14.3711,2.3001 C10.3261,1.3561 6.1751,2.9111 3.9161,6.3431 C1.6381,9.8041 1.5681,13.3931 3.6251,16.9951 C3.8541,17.3951 3.8961,17.7301 3.7661,18.1571 C3.4771,19.1091 3.2321,20.0741 2.9381,21.1471 M24.0001,11.3001 L24.0001,12.5001 C23.9211,13.0211 23.8611,13.5451 23.7601,14.0621 C22.3191,21.4761 14.6981,25.7281 7.6911,22.9471 C6.6201,22.5211 5.7141,22.4591 4.6601,22.7921 C3.2231,23.2461 1.7551,23.6021 0.3001,24.0001 L0.1001,24.0001 C0.1261,23.8381 0.1381,23.6721 0.1811,23.5151 C0.6221,21.8781 1.0421,20.2361 1.5271,18.6121 C1.6881,18.0751 1.6291,17.6531 1.3821,17.1601 C-1.9039,10.6051 1.6021,2.5601 8.6371,0.4941 C9.3141,0.2951 10.0121,0.1631 10.7001,0.0001 L13.4001,0.0001 C13.4891,0.0321 13.5751,0.0781 13.6661,0.0941 C18.7021,0.9691 22.0031,3.8371 23.5111,8.7221 C23.7671,9.5531 23.8411,10.4391 24.0001,11.3001" id="Fill-1"></path>
            </g>
            <path d="M0.2999,23.9996 C1.7549,23.6026 3.2229,23.2456 4.6599,22.7916 C5.7139,22.4596 6.6199,22.5206 7.6909,22.9466 C14.6979,25.7286 22.3189,21.4766 23.7599,14.0616 C23.8609,13.5456 23.9219,13.0206 23.9999,12.4996 L23.9999,23.9996 L0.2999,23.9996 Z" id="Fill-4" fill="#FFFFFF"></path>
            <g id="Group-8">
                <mask id="mask-2" fill="white">
                    <use xlink:href="#path-1"></use>
                </mask>
                <g id="Clip-7"></g>
                <path d="M10.6998,0.0001 C10.0118,0.1631 9.3148,0.2951 8.6368,0.4941 C1.6018,2.5601 -1.9042,10.6041 1.3828,17.1601 C1.6298,17.6531 1.6878,18.0751 1.5278,18.6121 C1.0428,20.2361 0.6218,21.8781 0.1808,23.5151 C0.1378,23.6721 0.1258,23.8381 0.0998,24.0001 C0.0668,23.8501 0.0048,23.7001 0.0038,23.5501 C-0.0002,15.7001 -0.0002,7.8501 -0.0002,0.0001 L10.6998,0.0001 Z" id="Fill-6" fill="#FFFFFF" mask="url(#mask-2)"></path>
            </g>
            <g id="Group-11" transform="translate(13.000000, 0.000000)">
                <mask id="mask-4" fill="white">
                    <use xlink:href="#path-3"></use>
                </mask>
                <g id="Clip-10"></g>
                <path d="M10.9996,11.2999 C10.8416,10.4389 10.7676,9.5529 10.5116,8.7219 C9.0036,3.8379 5.7016,0.9689 0.6656,0.0939 C0.5746,0.0779 0.4886,0.0319 0.3996,-0.0001 L10.9996,-0.0001 L10.9996,11.2999 Z" id="Fill-9" fill="#FFFFFF" mask="url(#mask-4)"></path>
            </g>
            <path d="M15.1324,17.6197 C15.8474,17.6617 16.4714,17.4277 17.0644,17.0517 C17.8004,16.5847 18.0794,15.8887 18.0874,15.0627 C18.0894,14.8957 17.9854,14.6407 17.8544,14.5727 C17.0424,14.1537 16.2184,13.7557 15.3764,13.4047 C15.2154,13.3377 14.8954,13.4517 14.7514,13.5897 C14.4424,13.8867 14.1914,14.2467 13.9314,14.5927 C13.7164,14.8807 13.4864,14.9157 13.1534,14.7757 C11.7524,14.1897 10.5954,13.3047 9.6994,12.0747 C8.9924,11.1047 8.9904,11.1107 9.7154,10.1717 C9.9474,9.8697 10.1974,9.5657 10.0134,9.1327 C9.6964,8.3827 9.3994,7.6237 9.0704,6.8797 C8.9954,6.7087 8.8544,6.5187 8.6944,6.4437 C8.1884,6.2057 7.3394,6.4257 6.9524,6.8477 C5.8714,8.0267 5.6474,9.5097 6.4564,11.0577 C7.6844,13.4107 9.4244,15.3167 11.7844,16.5757 C12.8204,17.1297 13.9204,17.5867 15.1324,17.6197 M2.9384,21.1467 C3.2324,20.0737 3.4774,19.1087 3.7664,18.1567 C3.8964,17.7297 3.8534,17.3947 3.6254,16.9947 C1.5684,13.3927 1.6374,9.8037 3.9154,6.3437 C6.1754,2.9107 10.3264,1.3567 14.3704,2.2997 C18.2664,3.2077 21.2624,6.5147 21.8174,10.5187 C22.6434,16.4747 18.0074,21.8007 12.0064,21.7817 C10.2174,21.7757 8.5674,21.2657 7.0104,20.3967 C6.7964,20.2777 6.4734,20.2487 6.2304,20.3047 C5.1644,20.5507 4.1104,20.8427 2.9384,21.1467" id="Fill-12" fill="#FFFFFF"></path>
            <path d="M15.1324,17.6197 C13.9204,17.5867 12.8204,17.1297 11.7844,16.5757 C9.4244,15.3167 7.6844,13.4107 6.4564,11.0577 C5.6474,9.5097 5.8714,8.0267 6.9524,6.8477 C7.3394,6.4257 8.1884,6.2057 8.6944,6.4437 C8.8544,6.5187 8.9954,6.7087 9.0704,6.8797 C9.3994,7.6237 9.6964,8.3827 10.0134,9.1327 C10.1974,9.5657 9.9474,9.8697 9.7154,10.1717 C8.9904,11.1107 8.9924,11.1047 9.6994,12.0747 C10.5954,13.3047 11.7524,14.1897 13.1534,14.7757 C13.4864,14.9157 13.7164,14.8807 13.9314,14.5927 C14.1914,14.2467 14.4424,13.8867 14.7514,13.5897 C14.8954,13.4517 15.2154,13.3377 15.3764,13.4047 C16.2184,13.7557 17.0424,14.1537 17.8544,14.5727 C17.9854,14.6407 18.0894,14.8957 18.0874,15.0627 C18.0794,15.8887 17.8004,16.5847 17.0644,17.0517 C16.4714,17.4277 15.8474,17.6617 15.1324,17.6197" id="Fill-14" fill="#000000"></path>
        </g>
    </g>
</svg>