<?xml version="1.0" encoding="UTF-8"?>
<svg width="23px" height="17px" viewBox="0 0 23 17" version="1.1" xmlns="http://www.w3.org/2000/svg" xmlns:xlink="http://www.w3.org/1999/xlink">
    <!-- Generator: sketchtool 41.2 (35397) - http://www.bohemiancoding.com/sketch -->
    <title>7997E7FF-69AD-499C-B77A-6B95D8F6DFCF</title>
    <desc>Created with sketchtool.</desc>
    <defs></defs>
    <g id="Page-1" stroke="none" stroke-width="1" fill="none" fill-rule="evenodd">
        <g id="1200*900-copy-3" transform="translate(-1092.000000, -163.000000)">
            <g id="Group-3" transform="translate(952.000000, 162.000000)">
                <g id="gmail" transform="translate(140.000000, 1.000000)">
                    <g id="Group">
                        <path id="Shape"></path>
                        <polygon id="Shape" stroke="#282C38" stroke-width="1.5" stroke-linecap="round" stroke-linejoin="round" fill="#FFFFFF" points="1.88084545 0.751147337 11.5764945 7.24289957 21.2178269 0.751147337"></polygon>
                        <path d="M21.1002324,0.00159719222 C22.1358263,0.00159719222 22.9831909,0.865971922 22.9831909,1.92237689 L22.9831909,2.4792095 L20.3671659,4.38543089 L11.4610008,10.6437441 L2.55483568,4.32194708 L2.55483568,16.965027 L1.88450626,16.965027 C0.848912363,16.965027 0.00154773083,16.1006706 0.00154773083,15.0442657 L0.00154773083,1.92290929 C0.00154773083,0.866485961 0.848912363,0.0021112311 1.88450626,0.0021112311 L11.4610008,7.2450108 L21.0997105,0.0021112311 L21.1002324,0.00159719222 L21.1002324,0.00159719222 Z" id="Shape" fill="#282C38"></path>
                        <polygon id="Shape" stroke="#282C38" stroke-width="1.5" stroke-linecap="round" stroke-linejoin="round" fill="#FFFFFF" points="2.55483568 4.32194708 2.55483568 16.2116687 20.3676698 16.2116687 20.3676698 4.38543089 11.4610008 10.6437441"></polygon>
                        <path d="M22.9862504,15.0458078 C22.9413662,16.4425616 22.3480634,16.9411058 20.3727629,16.9645313 L20.3727629,3.99877849 L22.9887879,2.09255711 L22.9831909,2.4792095 L22.9862504,15.0458078 Z" id="Shape" fill="#282C38"></path>
                    </g>
                </g>
            </g>
        </g>
    </g>
</svg>